Coordinates
version=1
nRows=11
nColumns=21
inDegrees=yes

Units are S.I. units (second, meters, Newtons, ...)
If the header above contains a line with 'inDegrees', this indicates whether rotational values are in degrees (yes) or radians (no).

endheader
time	sternoclavicular_r2	sternoclavicular_r3	unrotscap_r3	unrotscap_r2	acromioclavicular_r2	acromioclavicular_r3	acromioclavicular_r1	unrothum_r1	unrothum_r3	unrothum_r2	elv_angle	shoulder_elev	shoulder1_r2	shoulder_rot	elbow_flexion	pro_sup	deviation	flexion	wrist_hand_r1	wrist_hand_r3
      1.00502513	     -2.80852349	      1.18955799	     -1.18955799	      2.80852349	     -0.56866888	      4.59578183	      2.06577230	     -2.06577230	     -4.59578183	      0.56866888	     69.93578924	     11.60544295	    -69.93578924	      8.90034679	     67.50220504	     81.42773588	      0.00000000	     -0.00000000	     -0.00000000	      0.00000000
      1.02512563	     -2.80852349	      1.18955799	     -1.18955799	      2.80852349	     -0.56866888	      4.59578183	      2.06577230	     -2.06577230	     -4.59578183	      0.56866888	     69.93578924	     11.60544295	    -69.93578924	      8.90034679	     67.73188505	     81.42762000	      0.00000000	     -0.00000000	     -0.00000000	      0.00000000
      1.04522613	     -2.80852349	      1.18955799	     -1.18955799	      2.80852349	     -0.56866888	      4.59578183	      2.06577230	     -2.06577230	     -4.59578183	      0.56866888	     69.93578924	     11.60544295	    -69.93578924	      8.90034679	     67.96812341	     81.42130406	      0.00000000	     -0.00000000	     -0.00000000	      0.00000000
      1.06532663	     -2.80852349	      1.18955799	     -1.18955799	      2.80852349	     -0.56866888	      4.59578183	      2.06577230	     -2.06577230	     -4.59578183	      0.56866888	     69.93578924	     11.60544295	    -69.93578924	      8.90034679	     68.21104345	     81.41042275	      0.00000000	     -0.00000000	     -0.00000000	      0.00000000
      1.08542714	     -2.80852349	      1.18955799	     -1.18955799	      2.80852349	     -0.56866888	      4.59578183	      2.06577230	     -2.06577230	     -4.59578183	      0.56866888	     69.93578924	     11.60544295	    -69.93578924	      8.90034679	     68.46073016	     81.39608216	      0.00000000	     -0.00000000	     -0.00000000	      0.00000000
      1.10552764	     -2.80852349	      1.18955799	     -1.18955799	      2.80852349	     -0.56866888	      4.59578183	      2.06577230	     -2.06577230	     -4.59578183	      0.56866888	     69.93578924	     11.60544295	    -69.93578924	      8.90034679	     68.71724260	     81.37906903	      0.00000000	     -0.00000000	     -0.00000000	      0.00000000
      1.12562814	     -2.80852349	      1.18955799	     -1.18955799	      2.80852349	     -0.56866888	      4.59578183	      2.06577230	     -2.06577230	     -4.59578183	      0.56866888	     69.93578924	     11.60544295	    -69.93578924	      8.90034679	     68.98062086	     81.35996335	      0.00000000	     -0.00000000	     -0.00000000	      0.00000000
      1.14572864	     -2.80852349	      1.18955799	     -1.18955799	      2.80852349	     -0.56866888	      4.59578183	      2.06577230	     -2.06577230	     -4.59578183	      0.56866888	     69.93578924	     11.60544295	    -69.93578924	      8.90034679	     69.25089028	     81.33920402	      0.00000000	     -0.00000000	     -0.00000000	      0.00000000
      1.16582915	     -2.80852349	      1.18955799	     -1.18955799	      2.80852349	     -0.56866888	      4.59578183	      2.06577230	     -2.06577230	     -4.59578183	      0.56866888	     69.93578924	     11.60544295	    -69.93578924	      8.90034679	     69.52806403	     81.31712975	      0.00000000	     -0.00000000	     -0.00000000	      0.00000000
      1.18592965	     -2.80852349	      1.18955799	     -1.18955799	      2.80852349	     -0.56866888	      4.59578183	      2.06577230	     -2.06577230	     -4.59578183	      0.56866888	     69.93578924	     11.60544295	    -69.93578924	      8.90034679	     69.81214483	     81.29400574	      0.00000000	     -0.00000000	     -0.00000000	      0.00000000
      1.20603015	     -2.80852349	      1.18955799	     -1.18955799	      2.80852349	     -0.56866888	      4.59578183	      2.06577230	     -2.06577230	     -4.59578183	      0.56866888	     69.93578924	     11.60544295	    -69.93578924	      8.90034679	     70.10312606	     81.27004192	      0.00000000	     -0.00000000	     -0.00000000	      0.00000000
